G04 #@! TF.GenerationSoftware,KiCad,Pcbnew,5.1.10-88a1d61d58~88~ubuntu18.04.1*
G04 #@! TF.CreationDate,2021-10-06T13:15:52-05:00*
G04 #@! TF.ProjectId,keyboard,6b657962-6f61-4726-942e-6b696361645f,rev?*
G04 #@! TF.SameCoordinates,Original*
G04 #@! TF.FileFunction,Legend,Top*
G04 #@! TF.FilePolarity,Positive*
%FSLAX46Y46*%
G04 Gerber Fmt 4.6, Leading zero omitted, Abs format (unit mm)*
G04 Created by KiCad (PCBNEW 5.1.10-88a1d61d58~88~ubuntu18.04.1) date 2021-10-06 13:15:52*
%MOMM*%
%LPD*%
G01*
G04 APERTURE LIST*
%ADD10C,0.010000*%
%ADD11C,0.381000*%
%ADD12C,0.150000*%
G04 APERTURE END LIST*
D10*
G36*
X107880828Y2935511D02*
G01*
X111035142Y-219645D01*
X111013071Y-3920750D01*
X110991000Y-7621854D01*
X104154167Y-790756D01*
X103259819Y103058D01*
X102399611Y963174D01*
X101581053Y1782061D01*
X100811654Y2552187D01*
X100098924Y3266022D01*
X99450374Y3916035D01*
X98873513Y4494695D01*
X98375850Y4994469D01*
X97964895Y5407828D01*
X97648159Y5727240D01*
X97433151Y5945174D01*
X97327381Y6054099D01*
X97317334Y6065505D01*
X97399144Y6070759D01*
X97633151Y6075642D01*
X98002219Y6080036D01*
X98489212Y6083826D01*
X99076992Y6086895D01*
X99748424Y6089125D01*
X100486372Y6090402D01*
X101021924Y6090666D01*
X104726514Y6090666D01*
X107880828Y2935511D01*
G37*
X107880828Y2935511D02*
X111035142Y-219645D01*
X111013071Y-3920750D01*
X110991000Y-7621854D01*
X104154167Y-790756D01*
X103259819Y103058D01*
X102399611Y963174D01*
X101581053Y1782061D01*
X100811654Y2552187D01*
X100098924Y3266022D01*
X99450374Y3916035D01*
X98873513Y4494695D01*
X98375850Y4994469D01*
X97964895Y5407828D01*
X97648159Y5727240D01*
X97433151Y5945174D01*
X97327381Y6054099D01*
X97317334Y6065505D01*
X97399144Y6070759D01*
X97633151Y6075642D01*
X98002219Y6080036D01*
X98489212Y6083826D01*
X99076992Y6086895D01*
X99748424Y6089125D01*
X100486372Y6090402D01*
X101021924Y6090666D01*
X104726514Y6090666D01*
X107880828Y2935511D01*
G36*
X98883667Y-3900000D02*
G01*
X108874064Y-13890667D01*
X101338731Y-13890667D01*
X91348334Y-3900000D01*
X81357936Y6090666D01*
X88893269Y6090666D01*
X98883667Y-3900000D01*
G37*
X98883667Y-3900000D02*
X108874064Y-13890667D01*
X101338731Y-13890667D01*
X91348334Y-3900000D01*
X81357936Y6090666D01*
X88893269Y6090666D01*
X98883667Y-3900000D01*
G36*
X82966334Y-3900000D02*
G01*
X92956731Y-13890667D01*
X85506064Y-13890667D01*
X75515667Y-3900000D01*
X65525269Y6090666D01*
X72975936Y6090666D01*
X82966334Y-3900000D01*
G37*
X82966334Y-3900000D02*
X92956731Y-13890667D01*
X85506064Y-13890667D01*
X75515667Y-3900000D01*
X65525269Y6090666D01*
X72975936Y6090666D01*
X82966334Y-3900000D01*
G36*
X67133667Y-3900000D02*
G01*
X77124064Y-13890667D01*
X73356532Y-13887992D01*
X69589000Y-13885316D01*
X59598334Y-3898565D01*
X49607667Y6088187D01*
X53375468Y6089427D01*
X57143269Y6090666D01*
X67133667Y-3900000D01*
G37*
X67133667Y-3900000D02*
X77124064Y-13890667D01*
X73356532Y-13887992D01*
X69589000Y-13885316D01*
X59598334Y-3898565D01*
X49607667Y6088187D01*
X53375468Y6089427D01*
X57143269Y6090666D01*
X67133667Y-3900000D01*
G36*
X51216334Y-3900000D02*
G01*
X61206731Y-13890667D01*
X53756064Y-13890667D01*
X43765667Y-3900000D01*
X33775269Y6090666D01*
X41225936Y6090666D01*
X51216334Y-3900000D01*
G37*
X51216334Y-3900000D02*
X61206731Y-13890667D01*
X53756064Y-13890667D01*
X43765667Y-3900000D01*
X33775269Y6090666D01*
X41225936Y6090666D01*
X51216334Y-3900000D01*
G36*
X35383667Y-3900000D02*
G01*
X45374064Y-13890667D01*
X41648866Y-13888768D01*
X37923667Y-13886870D01*
X27890667Y-3902509D01*
X17857667Y6081853D01*
X21625468Y6086260D01*
X25393269Y6090666D01*
X35383667Y-3900000D01*
G37*
X35383667Y-3900000D02*
X45374064Y-13890667D01*
X41648866Y-13888768D01*
X37923667Y-13886870D01*
X27890667Y-3902509D01*
X17857667Y6081853D01*
X21625468Y6086260D01*
X25393269Y6090666D01*
X35383667Y-3900000D01*
G36*
X19466334Y-3900000D02*
G01*
X29456731Y-13890667D01*
X22006064Y-13890667D01*
X12015667Y-3900000D01*
X2025269Y6090666D01*
X9475936Y6090666D01*
X19466334Y-3900000D01*
G37*
X19466334Y-3900000D02*
X29456731Y-13890667D01*
X22006064Y-13890667D01*
X12015667Y-3900000D01*
X2025269Y6090666D01*
X9475936Y6090666D01*
X19466334Y-3900000D01*
G36*
X7358786Y-7625091D02*
G01*
X13623904Y-13890667D01*
X6172626Y-13890667D01*
X3611075Y-11328083D01*
X1049526Y-8765500D01*
X1071596Y-5062507D01*
X1093667Y-1359514D01*
X7358786Y-7625091D01*
G37*
X7358786Y-7625091D02*
X13623904Y-13890667D01*
X6172626Y-13890667D01*
X3611075Y-11328083D01*
X1049526Y-8765500D01*
X1071596Y-5062507D01*
X1093667Y-1359514D01*
X7358786Y-7625091D01*
D11*
X4610000Y-9900000D02*
X4610000Y-12440000D01*
X2070000Y-12440000D02*
X4610000Y-12440000D01*
X2070000Y5340000D02*
X2070000Y-12440000D01*
X4610000Y5340000D02*
X2070000Y5340000D01*
D12*
G36*
X11089360Y1381568D02*
G01*
X11289360Y1381568D01*
X11289360Y1281568D01*
X11089360Y1281568D01*
X11089360Y1381568D01*
G37*
X11089360Y1381568D02*
X11289360Y1381568D01*
X11289360Y1281568D01*
X11089360Y1281568D01*
X11089360Y1381568D01*
G36*
X10489360Y981568D02*
G01*
X11289360Y981568D01*
X11289360Y881568D01*
X10489360Y881568D01*
X10489360Y981568D01*
G37*
X10489360Y981568D02*
X11289360Y981568D01*
X11289360Y881568D01*
X10489360Y881568D01*
X10489360Y981568D01*
G36*
X10489360Y1381568D02*
G01*
X10589360Y1381568D01*
X10589360Y881568D01*
X10489360Y881568D01*
X10489360Y1381568D01*
G37*
X10489360Y1381568D02*
X10589360Y1381568D01*
X10589360Y881568D01*
X10489360Y881568D01*
X10489360Y1381568D01*
G36*
X10889360Y1181568D02*
G01*
X10989360Y1181568D01*
X10989360Y1081568D01*
X10889360Y1081568D01*
X10889360Y1181568D01*
G37*
X10889360Y1181568D02*
X10989360Y1181568D01*
X10989360Y1081568D01*
X10889360Y1081568D01*
X10889360Y1181568D01*
G36*
X10489360Y1381568D02*
G01*
X10789360Y1381568D01*
X10789360Y1281568D01*
X10489360Y1281568D01*
X10489360Y1381568D01*
G37*
X10489360Y1381568D02*
X10789360Y1381568D01*
X10789360Y1281568D01*
X10489360Y1281568D01*
X10489360Y1381568D01*
D11*
X7150000Y-9900000D02*
X7150000Y-12440000D01*
X4610000Y-9900000D02*
X7150000Y-9900000D01*
X35090000Y5340000D02*
X4610000Y5340000D01*
X35090000Y-12440000D02*
X35090000Y5340000D01*
X4610000Y-12440000D02*
X35090000Y-12440000D01*
D12*
X5441904Y-9312348D02*
X5441904Y-8855205D01*
X6241904Y-9083776D02*
X5441904Y-9083776D01*
X5441904Y-8664729D02*
X6241904Y-8131395D01*
X5441904Y-8131395D02*
X6241904Y-8664729D01*
X5441904Y-7674252D02*
X5441904Y-7598062D01*
X5480000Y-7521872D01*
X5518095Y-7483776D01*
X5594285Y-7445681D01*
X5746666Y-7407586D01*
X5937142Y-7407586D01*
X6089523Y-7445681D01*
X6165714Y-7483776D01*
X6203809Y-7521872D01*
X6241904Y-7598062D01*
X6241904Y-7674252D01*
X6203809Y-7750443D01*
X6165714Y-7788538D01*
X6089523Y-7826633D01*
X5937142Y-7864729D01*
X5746666Y-7864729D01*
X5594285Y-7826633D01*
X5518095Y-7788538D01*
X5480000Y-7750443D01*
X5441904Y-7674252D01*
X5403809Y-6493300D02*
X6432380Y-7179014D01*
X6241904Y-6226633D02*
X5441904Y-6226633D01*
X5441904Y-6036157D01*
X5480000Y-5921872D01*
X5556190Y-5845681D01*
X5632380Y-5807586D01*
X5784761Y-5769491D01*
X5899047Y-5769491D01*
X6051428Y-5807586D01*
X6127619Y-5845681D01*
X6203809Y-5921872D01*
X6241904Y-6036157D01*
X6241904Y-6226633D01*
X5441904Y-5502824D02*
X5441904Y-5007586D01*
X5746666Y-5274252D01*
X5746666Y-5159967D01*
X5784761Y-5083776D01*
X5822857Y-5045681D01*
X5899047Y-5007586D01*
X6089523Y-5007586D01*
X6165714Y-5045681D01*
X6203809Y-5083776D01*
X6241904Y-5159967D01*
X6241904Y-5388538D01*
X6203809Y-5464729D01*
X6165714Y-5502824D01*
X8781904Y-9601476D02*
X7981904Y-9601476D01*
X7981904Y-9411000D01*
X8020000Y-9296714D01*
X8096190Y-9220523D01*
X8172380Y-9182428D01*
X8324761Y-9144333D01*
X8439047Y-9144333D01*
X8591428Y-9182428D01*
X8667619Y-9220523D01*
X8743809Y-9296714D01*
X8781904Y-9411000D01*
X8781904Y-9601476D01*
X8058095Y-8839571D02*
X8020000Y-8801476D01*
X7981904Y-8725285D01*
X7981904Y-8534809D01*
X8020000Y-8458619D01*
X8058095Y-8420523D01*
X8134285Y-8382428D01*
X8210476Y-8382428D01*
X8324761Y-8420523D01*
X8781904Y-8877666D01*
X8781904Y-8382428D01*
X18941904Y-9601476D02*
X18141904Y-9601476D01*
X18141904Y-9411000D01*
X18180000Y-9296714D01*
X18256190Y-9220523D01*
X18332380Y-9182428D01*
X18484761Y-9144333D01*
X18599047Y-9144333D01*
X18751428Y-9182428D01*
X18827619Y-9220523D01*
X18903809Y-9296714D01*
X18941904Y-9411000D01*
X18941904Y-9601476D01*
X18141904Y-8649095D02*
X18141904Y-8572904D01*
X18180000Y-8496714D01*
X18218095Y-8458619D01*
X18294285Y-8420523D01*
X18446666Y-8382428D01*
X18637142Y-8382428D01*
X18789523Y-8420523D01*
X18865714Y-8458619D01*
X18903809Y-8496714D01*
X18941904Y-8572904D01*
X18941904Y-8649095D01*
X18903809Y-8725285D01*
X18865714Y-8763380D01*
X18789523Y-8801476D01*
X18637142Y-8839571D01*
X18446666Y-8839571D01*
X18294285Y-8801476D01*
X18218095Y-8763380D01*
X18180000Y-8725285D01*
X18141904Y-8649095D01*
X16401904Y-9601476D02*
X15601904Y-9601476D01*
X15601904Y-9411000D01*
X15640000Y-9296714D01*
X15716190Y-9220523D01*
X15792380Y-9182428D01*
X15944761Y-9144333D01*
X16059047Y-9144333D01*
X16211428Y-9182428D01*
X16287619Y-9220523D01*
X16363809Y-9296714D01*
X16401904Y-9411000D01*
X16401904Y-9601476D01*
X16401904Y-8382428D02*
X16401904Y-8839571D01*
X16401904Y-8611000D02*
X15601904Y-8611000D01*
X15716190Y-8687190D01*
X15792380Y-8763380D01*
X15830476Y-8839571D01*
X13100000Y-9620523D02*
X13061904Y-9696714D01*
X13061904Y-9811000D01*
X13100000Y-9925285D01*
X13176190Y-10001476D01*
X13252380Y-10039571D01*
X13404761Y-10077666D01*
X13519047Y-10077666D01*
X13671428Y-10039571D01*
X13747619Y-10001476D01*
X13823809Y-9925285D01*
X13861904Y-9811000D01*
X13861904Y-9734809D01*
X13823809Y-9620523D01*
X13785714Y-9582428D01*
X13519047Y-9582428D01*
X13519047Y-9734809D01*
X13861904Y-9239571D02*
X13061904Y-9239571D01*
X13861904Y-8782428D01*
X13061904Y-8782428D01*
X13861904Y-8401476D02*
X13061904Y-8401476D01*
X13061904Y-8211000D01*
X13100000Y-8096714D01*
X13176190Y-8020523D01*
X13252380Y-7982428D01*
X13404761Y-7944333D01*
X13519047Y-7944333D01*
X13671428Y-7982428D01*
X13747619Y-8020523D01*
X13823809Y-8096714D01*
X13861904Y-8211000D01*
X13861904Y-8401476D01*
X10560000Y-9620523D02*
X10521904Y-9696714D01*
X10521904Y-9811000D01*
X10560000Y-9925285D01*
X10636190Y-10001476D01*
X10712380Y-10039571D01*
X10864761Y-10077666D01*
X10979047Y-10077666D01*
X11131428Y-10039571D01*
X11207619Y-10001476D01*
X11283809Y-9925285D01*
X11321904Y-9811000D01*
X11321904Y-9734809D01*
X11283809Y-9620523D01*
X11245714Y-9582428D01*
X10979047Y-9582428D01*
X10979047Y-9734809D01*
X11321904Y-9239571D02*
X10521904Y-9239571D01*
X11321904Y-8782428D01*
X10521904Y-8782428D01*
X11321904Y-8401476D02*
X10521904Y-8401476D01*
X10521904Y-8211000D01*
X10560000Y-8096714D01*
X10636190Y-8020523D01*
X10712380Y-7982428D01*
X10864761Y-7944333D01*
X10979047Y-7944333D01*
X11131428Y-7982428D01*
X11207619Y-8020523D01*
X11283809Y-8096714D01*
X11321904Y-8211000D01*
X11321904Y-8401476D01*
X21481904Y-9601476D02*
X20681904Y-9601476D01*
X20681904Y-9411000D01*
X20720000Y-9296714D01*
X20796190Y-9220523D01*
X20872380Y-9182428D01*
X21024761Y-9144333D01*
X21139047Y-9144333D01*
X21291428Y-9182428D01*
X21367619Y-9220523D01*
X21443809Y-9296714D01*
X21481904Y-9411000D01*
X21481904Y-9601476D01*
X20948571Y-8458619D02*
X21481904Y-8458619D01*
X20643809Y-8649095D02*
X21215238Y-8839571D01*
X21215238Y-8344333D01*
X23945714Y-9144333D02*
X23983809Y-9182428D01*
X24021904Y-9296714D01*
X24021904Y-9372904D01*
X23983809Y-9487190D01*
X23907619Y-9563380D01*
X23831428Y-9601476D01*
X23679047Y-9639571D01*
X23564761Y-9639571D01*
X23412380Y-9601476D01*
X23336190Y-9563380D01*
X23260000Y-9487190D01*
X23221904Y-9372904D01*
X23221904Y-9296714D01*
X23260000Y-9182428D01*
X23298095Y-9144333D01*
X23221904Y-8458619D02*
X23221904Y-8611000D01*
X23260000Y-8687190D01*
X23298095Y-8725285D01*
X23412380Y-8801476D01*
X23564761Y-8839571D01*
X23869523Y-8839571D01*
X23945714Y-8801476D01*
X23983809Y-8763380D01*
X24021904Y-8687190D01*
X24021904Y-8534809D01*
X23983809Y-8458619D01*
X23945714Y-8420523D01*
X23869523Y-8382428D01*
X23679047Y-8382428D01*
X23602857Y-8420523D01*
X23564761Y-8458619D01*
X23526666Y-8534809D01*
X23526666Y-8687190D01*
X23564761Y-8763380D01*
X23602857Y-8801476D01*
X23679047Y-8839571D01*
X26561904Y-9601476D02*
X25761904Y-9601476D01*
X25761904Y-9411000D01*
X25800000Y-9296714D01*
X25876190Y-9220523D01*
X25952380Y-9182428D01*
X26104761Y-9144333D01*
X26219047Y-9144333D01*
X26371428Y-9182428D01*
X26447619Y-9220523D01*
X26523809Y-9296714D01*
X26561904Y-9411000D01*
X26561904Y-9601476D01*
X25761904Y-8877666D02*
X25761904Y-8344333D01*
X26561904Y-8687190D01*
X28682857Y-9563380D02*
X28682857Y-9296714D01*
X29101904Y-9182428D02*
X29101904Y-9563380D01*
X28301904Y-9563380D01*
X28301904Y-9182428D01*
X28301904Y-8496714D02*
X28301904Y-8649095D01*
X28340000Y-8725285D01*
X28378095Y-8763380D01*
X28492380Y-8839571D01*
X28644761Y-8877666D01*
X28949523Y-8877666D01*
X29025714Y-8839571D01*
X29063809Y-8801476D01*
X29101904Y-8725285D01*
X29101904Y-8572904D01*
X29063809Y-8496714D01*
X29025714Y-8458619D01*
X28949523Y-8420523D01*
X28759047Y-8420523D01*
X28682857Y-8458619D01*
X28644761Y-8496714D01*
X28606666Y-8572904D01*
X28606666Y-8725285D01*
X28644761Y-8801476D01*
X28682857Y-8839571D01*
X28759047Y-8877666D01*
X31222857Y-9334809D02*
X31260952Y-9220523D01*
X31299047Y-9182428D01*
X31375238Y-9144333D01*
X31489523Y-9144333D01*
X31565714Y-9182428D01*
X31603809Y-9220523D01*
X31641904Y-9296714D01*
X31641904Y-9601476D01*
X30841904Y-9601476D01*
X30841904Y-9334809D01*
X30880000Y-9258619D01*
X30918095Y-9220523D01*
X30994285Y-9182428D01*
X31070476Y-9182428D01*
X31146666Y-9220523D01*
X31184761Y-9258619D01*
X31222857Y-9334809D01*
X31222857Y-9601476D01*
X31108571Y-8458619D02*
X31641904Y-8458619D01*
X30803809Y-8649095D02*
X31375238Y-8839571D01*
X31375238Y-8344333D01*
X33762857Y-9334809D02*
X33800952Y-9220523D01*
X33839047Y-9182428D01*
X33915238Y-9144333D01*
X34029523Y-9144333D01*
X34105714Y-9182428D01*
X34143809Y-9220523D01*
X34181904Y-9296714D01*
X34181904Y-9601476D01*
X33381904Y-9601476D01*
X33381904Y-9334809D01*
X33420000Y-9258619D01*
X33458095Y-9220523D01*
X33534285Y-9182428D01*
X33610476Y-9182428D01*
X33686666Y-9220523D01*
X33724761Y-9258619D01*
X33762857Y-9334809D01*
X33762857Y-9601476D01*
X33381904Y-8420523D02*
X33381904Y-8801476D01*
X33762857Y-8839571D01*
X33724761Y-8801476D01*
X33686666Y-8725285D01*
X33686666Y-8534809D01*
X33724761Y-8458619D01*
X33762857Y-8420523D01*
X33839047Y-8382428D01*
X34029523Y-8382428D01*
X34105714Y-8420523D01*
X34143809Y-8458619D01*
X34181904Y-8534809D01*
X34181904Y-8725285D01*
X34143809Y-8801476D01*
X34105714Y-8839571D01*
X33762857Y1587190D02*
X33800952Y1701476D01*
X33839047Y1739571D01*
X33915238Y1777666D01*
X34029523Y1777666D01*
X34105714Y1739571D01*
X34143809Y1701476D01*
X34181904Y1625285D01*
X34181904Y1320523D01*
X33381904Y1320523D01*
X33381904Y1587190D01*
X33420000Y1663380D01*
X33458095Y1701476D01*
X33534285Y1739571D01*
X33610476Y1739571D01*
X33686666Y1701476D01*
X33724761Y1663380D01*
X33762857Y1587190D01*
X33762857Y1320523D01*
X33381904Y2463380D02*
X33381904Y2311000D01*
X33420000Y2234809D01*
X33458095Y2196714D01*
X33572380Y2120523D01*
X33724761Y2082428D01*
X34029523Y2082428D01*
X34105714Y2120523D01*
X34143809Y2158619D01*
X34181904Y2234809D01*
X34181904Y2387190D01*
X34143809Y2463380D01*
X34105714Y2501476D01*
X34029523Y2539571D01*
X33839047Y2539571D01*
X33762857Y2501476D01*
X33724761Y2463380D01*
X33686666Y2387190D01*
X33686666Y2234809D01*
X33724761Y2158619D01*
X33762857Y2120523D01*
X33839047Y2082428D01*
X28682857Y1587190D02*
X28720952Y1701476D01*
X28759047Y1739571D01*
X28835238Y1777666D01*
X28949523Y1777666D01*
X29025714Y1739571D01*
X29063809Y1701476D01*
X29101904Y1625285D01*
X29101904Y1320523D01*
X28301904Y1320523D01*
X28301904Y1587190D01*
X28340000Y1663380D01*
X28378095Y1701476D01*
X28454285Y1739571D01*
X28530476Y1739571D01*
X28606666Y1701476D01*
X28644761Y1663380D01*
X28682857Y1587190D01*
X28682857Y1320523D01*
X28301904Y2044333D02*
X28301904Y2539571D01*
X28606666Y2272904D01*
X28606666Y2387190D01*
X28644761Y2463380D01*
X28682857Y2501476D01*
X28759047Y2539571D01*
X28949523Y2539571D01*
X29025714Y2501476D01*
X29063809Y2463380D01*
X29101904Y2387190D01*
X29101904Y2158619D01*
X29063809Y2082428D01*
X29025714Y2044333D01*
X26142857Y1587190D02*
X26180952Y1701476D01*
X26219047Y1739571D01*
X26295238Y1777666D01*
X26409523Y1777666D01*
X26485714Y1739571D01*
X26523809Y1701476D01*
X26561904Y1625285D01*
X26561904Y1320523D01*
X25761904Y1320523D01*
X25761904Y1587190D01*
X25800000Y1663380D01*
X25838095Y1701476D01*
X25914285Y1739571D01*
X25990476Y1739571D01*
X26066666Y1701476D01*
X26104761Y1663380D01*
X26142857Y1587190D01*
X26142857Y1320523D01*
X26561904Y2539571D02*
X26561904Y2082428D01*
X26561904Y2311000D02*
X25761904Y2311000D01*
X25876190Y2234809D01*
X25952380Y2158619D01*
X25990476Y2082428D01*
X15982857Y1644333D02*
X15982857Y1377666D01*
X16401904Y1377666D02*
X15601904Y1377666D01*
X15601904Y1758619D01*
X15868571Y2406238D02*
X16401904Y2406238D01*
X15563809Y2215761D02*
X16135238Y2025285D01*
X16135238Y2520523D01*
X13061904Y844333D02*
X13861904Y1111000D01*
X13061904Y1377666D01*
X13785714Y2101476D02*
X13823809Y2063380D01*
X13861904Y1949095D01*
X13861904Y1872904D01*
X13823809Y1758619D01*
X13747619Y1682428D01*
X13671428Y1644333D01*
X13519047Y1606238D01*
X13404761Y1606238D01*
X13252380Y1644333D01*
X13176190Y1682428D01*
X13100000Y1758619D01*
X13061904Y1872904D01*
X13061904Y1949095D01*
X13100000Y2063380D01*
X13138095Y2101476D01*
X13785714Y2901476D02*
X13823809Y2863380D01*
X13861904Y2749095D01*
X13861904Y2672904D01*
X13823809Y2558619D01*
X13747619Y2482428D01*
X13671428Y2444333D01*
X13519047Y2406238D01*
X13404761Y2406238D01*
X13252380Y2444333D01*
X13176190Y2482428D01*
X13100000Y2558619D01*
X13061904Y2672904D01*
X13061904Y2749095D01*
X13100000Y2863380D01*
X13138095Y2901476D01*
X11253809Y1649786D02*
X11291904Y1764072D01*
X11291904Y1954548D01*
X11253809Y2030739D01*
X11215714Y2068834D01*
X11139523Y2106929D01*
X11063333Y2106929D01*
X10987142Y2068834D01*
X10949047Y2030739D01*
X10910952Y1954548D01*
X10872857Y1802167D01*
X10834761Y1725977D01*
X10796666Y1687881D01*
X10720476Y1649786D01*
X10644285Y1649786D01*
X10568095Y1687881D01*
X10530000Y1725977D01*
X10491904Y1802167D01*
X10491904Y1992643D01*
X10530000Y2106929D01*
X10491904Y2335500D02*
X10491904Y2792643D01*
X11291904Y2564072D02*
X10491904Y2564072D01*
X8020000Y1301476D02*
X7981904Y1225285D01*
X7981904Y1111000D01*
X8020000Y996714D01*
X8096190Y920523D01*
X8172380Y882428D01*
X8324761Y844333D01*
X8439047Y844333D01*
X8591428Y882428D01*
X8667619Y920523D01*
X8743809Y996714D01*
X8781904Y1111000D01*
X8781904Y1187190D01*
X8743809Y1301476D01*
X8705714Y1339571D01*
X8439047Y1339571D01*
X8439047Y1187190D01*
X8781904Y1682428D02*
X7981904Y1682428D01*
X8781904Y2139571D01*
X7981904Y2139571D01*
X8781904Y2520523D02*
X7981904Y2520523D01*
X7981904Y2711000D01*
X8020000Y2825285D01*
X8096190Y2901476D01*
X8172380Y2939571D01*
X8324761Y2977666D01*
X8439047Y2977666D01*
X8591428Y2939571D01*
X8667619Y2901476D01*
X8743809Y2825285D01*
X8781904Y2711000D01*
X8781904Y2520523D01*
X6241904Y1358619D02*
X5860952Y1091952D01*
X6241904Y901476D02*
X5441904Y901476D01*
X5441904Y1206238D01*
X5480000Y1282428D01*
X5518095Y1320523D01*
X5594285Y1358619D01*
X5708571Y1358619D01*
X5784761Y1320523D01*
X5822857Y1282428D01*
X5860952Y1206238D01*
X5860952Y901476D01*
X6013333Y1663380D02*
X6013333Y2044333D01*
X6241904Y1587190D02*
X5441904Y1853857D01*
X6241904Y2120523D01*
X5441904Y2311000D02*
X6241904Y2501476D01*
X5670476Y2653857D01*
X6241904Y2806238D01*
X5441904Y2996714D01*
X18522857Y1644333D02*
X18522857Y1377666D01*
X18941904Y1377666D02*
X18141904Y1377666D01*
X18141904Y1758619D01*
X18141904Y2444333D02*
X18141904Y2063380D01*
X18522857Y2025285D01*
X18484761Y2063380D01*
X18446666Y2139571D01*
X18446666Y2330047D01*
X18484761Y2406238D01*
X18522857Y2444333D01*
X18599047Y2482428D01*
X18789523Y2482428D01*
X18865714Y2444333D01*
X18903809Y2406238D01*
X18941904Y2330047D01*
X18941904Y2139571D01*
X18903809Y2063380D01*
X18865714Y2025285D01*
X21062857Y1644333D02*
X21062857Y1377666D01*
X21481904Y1377666D02*
X20681904Y1377666D01*
X20681904Y1758619D01*
X20681904Y2406238D02*
X20681904Y2253857D01*
X20720000Y2177666D01*
X20758095Y2139571D01*
X20872380Y2063380D01*
X21024761Y2025285D01*
X21329523Y2025285D01*
X21405714Y2063380D01*
X21443809Y2101476D01*
X21481904Y2177666D01*
X21481904Y2330047D01*
X21443809Y2406238D01*
X21405714Y2444333D01*
X21329523Y2482428D01*
X21139047Y2482428D01*
X21062857Y2444333D01*
X21024761Y2406238D01*
X20986666Y2330047D01*
X20986666Y2177666D01*
X21024761Y2101476D01*
X21062857Y2063380D01*
X21139047Y2025285D01*
X23602857Y1644333D02*
X23602857Y1377666D01*
X24021904Y1377666D02*
X23221904Y1377666D01*
X23221904Y1758619D01*
X23221904Y1987190D02*
X23221904Y2520523D01*
X24021904Y2177666D01*
X31222857Y1587190D02*
X31260952Y1701476D01*
X31299047Y1739571D01*
X31375238Y1777666D01*
X31489523Y1777666D01*
X31565714Y1739571D01*
X31603809Y1701476D01*
X31641904Y1625285D01*
X31641904Y1320523D01*
X30841904Y1320523D01*
X30841904Y1587190D01*
X30880000Y1663380D01*
X30918095Y1701476D01*
X30994285Y1739571D01*
X31070476Y1739571D01*
X31146666Y1701476D01*
X31184761Y1663380D01*
X31222857Y1587190D01*
X31222857Y1320523D01*
X30918095Y2082428D02*
X30880000Y2120523D01*
X30841904Y2196714D01*
X30841904Y2387190D01*
X30880000Y2463380D01*
X30918095Y2501476D01*
X30994285Y2539571D01*
X31070476Y2539571D01*
X31184761Y2501476D01*
X31641904Y2044333D01*
X31641904Y2539571D01*
M02*
