M48
; DRILL file {KiCad 5.1.10-88a1d61d58~88~ubuntu18.04.1} date Wed Oct  6 13:15:45 2021
; FORMAT={-:-/ absolute / inch / decimal}
; #@! TF.CreationDate,2021-10-06T13:15:45-05:00
; #@! TF.GenerationSoftware,Kicad,Pcbnew,5.1.10-88a1d61d58~88~ubuntu18.04.1
; #@! TF.FileFunction,NonPlated,1,2,NPTH
FMAT,2
INCH
T1C0.0315
T2C0.0669
T3C0.0866
T4C0.1181
T5C0.1339
%
G90
G05
T1
X2.2067Y0.1496
X2.2067Y-0.126
T2
X0.2165Y-0.8268
X0.2165Y-1.4961
X0.2165Y-2.1654
X0.5709Y-2.8346
X0.6496Y-0.8268
X0.6496Y-1.4961
X0.6496Y-2.1654
X0.9252Y-0.8268
X0.9252Y-1.4961
X0.9252Y-2.1654
X1.0039Y-2.8346
X1.3583Y-0.8268
X1.3583Y-1.4961
X1.3583Y-2.1654
X1.6339Y-0.8268
X1.6339Y-1.4961
X1.6339Y-2.1654
X1.6339Y-2.8346
X2.0669Y-0.8268
X2.0669Y-1.4961
X2.0669Y-2.1654
X2.0669Y-2.8346
X2.3425Y-0.8268
X2.3425Y-1.4961
X2.3425Y-2.1654
X2.3425Y-2.8346
X2.7756Y-0.8268
X2.7756Y-1.4961
X2.7756Y-2.1654
X2.7756Y-2.8346
X3.0512Y-0.8268
X3.0512Y-1.4961
X3.0512Y-2.1654
X3.4055Y-2.8346
X3.4843Y-0.8268
X3.4843Y-1.4961
X3.4843Y-2.1654
X3.7598Y-0.8268
X3.7598Y-1.4961
X3.7598Y-2.1654
X3.8386Y-2.8346
X4.1929Y-0.8268
X4.1929Y-1.4961
X4.1929Y-2.1654
T3
X0.1969Y-0.6299
X0.1969Y-3.063
X4.2106Y-3.0583
X4.2126Y-0.6299
T4
X0.2362Y-0.9764
X0.2362Y-1.6457
X0.2362Y-2.315
X0.4331Y-1.0591
X0.4331Y-1.7283
X0.4331Y-2.3976
X0.5906Y-2.9843
X0.7874Y-3.0669
X0.9449Y-0.9764
X0.9449Y-1.6457
X0.9449Y-2.315
X1.1417Y-1.0591
X1.1417Y-1.7283
X1.1417Y-2.3976
X1.6535Y-0.9764
X1.6535Y-1.6457
X1.6535Y-2.315
X1.6535Y-2.9843
X1.8504Y-1.0591
X1.8504Y-1.7283
X1.8504Y-2.3976
X1.8504Y-3.0669
X2.3622Y-0.9764
X2.3622Y-1.6457
X2.3622Y-2.315
X2.3622Y-2.9843
X2.5591Y-1.0591
X2.5591Y-1.7283
X2.5591Y-2.3976
X2.5591Y-3.0669
X3.0709Y-0.9764
X3.0709Y-1.6457
X3.0709Y-2.315
X3.2677Y-1.0591
X3.2677Y-1.7283
X3.2677Y-2.3976
X3.4252Y-2.9843
X3.622Y-3.0669
X3.7795Y-0.9764
X3.7795Y-1.6457
X3.7795Y-2.315
X3.9764Y-1.0591
X3.9764Y-1.7283
X3.9764Y-2.3976
T5
X0.4331Y-0.8268
X0.4331Y-1.4961
X0.4331Y-2.1654
X0.7874Y-2.8346
X1.1417Y-0.8268
X1.1417Y-1.4961
X1.1417Y-2.1654
X1.8504Y-0.8268
X1.8504Y-1.4961
X1.8504Y-2.1654
X1.8504Y-2.8346
X2.5591Y-0.8268
X2.5591Y-1.4961
X2.5591Y-2.1654
X2.5591Y-2.8346
X3.2677Y-0.8268
X3.2677Y-1.4961
X3.2677Y-2.1654
X3.622Y-2.8346
X3.9764Y-0.8268
X3.9764Y-1.4961
X3.9764Y-2.1654
T0
M30
