M48
; DRILL file {KiCad 5.1.10-88a1d61d58~88~ubuntu18.04.1} date Wed Oct  6 13:15:45 2021
; FORMAT={-:-/ absolute / inch / decimal}
; #@! TF.CreationDate,2021-10-06T13:15:45-05:00
; #@! TF.GenerationSoftware,Kicad,Pcbnew,5.1.10-88a1d61d58~88~ubuntu18.04.1
; #@! TF.FileFunction,Plated,1,2,PTH
FMAT,2
INCH
T1C0.0157
T2C0.0276
T3C0.0354
T4C0.0430
%
G90
G05
T1
X0.748Y-1.063
X0.748Y-1.6142
X0.748Y-2.2835
X0.9272Y-0.2362
X1.4567Y-1.063
X1.4567Y-1.6142
X1.4567Y-2.2835
X1.4961Y-2.8346
X2.1654Y-1.063
X2.1654Y-1.6142
X2.1654Y-2.2835
X2.2047Y-2.8346
X2.874Y-1.063
X2.874Y-1.6142
X2.874Y-2.2835
X3.3071Y-2.8346
X3.5827Y-1.063
X3.5827Y-1.6142
X3.5827Y-2.2835
T2
X0.5551Y-0.6299
X0.5551Y-1.2992
X0.5551Y-1.9685
X0.5719Y-2.6378
X0.8622Y-0.6299
X0.8622Y-1.2992
X0.8622Y-1.9685
X0.8789Y-2.6378
X1.2638Y-0.6299
X1.2638Y-1.2992
X1.2638Y-1.9685
X1.5709Y-0.6299
X1.5709Y-1.2992
X1.5709Y-1.9685
X1.9724Y-0.6299
X1.9724Y-1.2992
X1.9724Y-1.9685
X1.9843Y-2.6378
X2.2795Y-0.6299
X2.2795Y-1.2992
X2.2795Y-1.9685
X2.2913Y-2.6378
X2.6811Y-0.6299
X2.6811Y-1.2992
X2.6811Y-1.9685
X2.6978Y-2.6378
X2.9882Y-0.6299
X2.9882Y-1.2992
X2.9882Y-1.9685
X3.0049Y-2.6378
X3.2008Y-0.6299
X3.3898Y-1.2992
X3.3898Y-1.9685
X3.5079Y-0.6299
X3.6339Y-0.6299
X3.6969Y-1.2992
X3.6969Y-1.9685
X3.8622Y-1.2598
X3.8622Y-1.9291
X3.8789Y-2.5984
X3.9409Y-0.6299
X4.1693Y-1.2598
X4.1693Y-1.9291
X4.186Y-2.5984
T4
X0.2315Y0.1602
X0.2315Y-0.4398
X0.3315Y0.1602
X0.3315Y-0.4398
X0.4315Y0.1602
X0.4315Y-0.4398
X0.5315Y0.1602
X0.5315Y-0.4398
X0.6315Y0.1602
X0.6315Y-0.4398
X0.7315Y0.1602
X0.7315Y-0.4398
X0.8315Y0.1602
X0.8315Y-0.4398
X0.9315Y0.1602
X0.9315Y-0.4398
X1.0315Y0.1602
X1.0315Y-0.4398
X1.1315Y0.1602
X1.1315Y-0.4398
X1.2315Y0.1602
X1.2315Y-0.4398
X1.3315Y0.1602
X1.3315Y-0.4398
T3
G00X2.1161Y0.0787
M15
G01X2.1161Y0.0945
M16
G05
G00X2.1161Y-0.0394
M15
G01X2.1161Y-0.0236
M16
G05
G00X2.1161Y-0.1969
M15
G01X2.1161Y-0.1811
M16
G05
G00X2.2972Y-0.2402
M15
G01X2.2972Y-0.2244
M16
G05
T0
M30
