G04 #@! TF.GenerationSoftware,KiCad,Pcbnew,5.1.10-88a1d61d58~88~ubuntu18.04.1*
G04 #@! TF.CreationDate,2021-10-06T13:15:52-05:00*
G04 #@! TF.ProjectId,keyboard,6b657962-6f61-4726-942e-6b696361645f,rev?*
G04 #@! TF.SameCoordinates,Original*
G04 #@! TF.FileFunction,Soldermask,Bot*
G04 #@! TF.FilePolarity,Negative*
%FSLAX46Y46*%
G04 Gerber Fmt 4.6, Leading zero omitted, Abs format (unit mm)*
G04 Created by KiCad (PCBNEW 5.1.10-88a1d61d58~88~ubuntu18.04.1) date 2021-10-06 13:15:52*
%MOMM*%
%LPD*%
G01*
G04 APERTURE LIST*
%ADD10C,0.300000*%
%ADD11C,1.700000*%
%ADD12C,3.400000*%
%ADD13R,1.600000X2.200000*%
%ADD14C,3.000000*%
%ADD15O,1.600000X2.000000*%
%ADD16C,0.800000*%
%ADD17C,2.200000*%
%ADD18C,1.752600*%
%ADD19R,1.752600X1.752600*%
%ADD20C,1.600000*%
%ADD21R,1.600000X1.600000*%
%ADD22R,1.200000X1.200000*%
G04 APERTURE END LIST*
D10*
X106505000Y2821428D02*
X106505000Y1821428D01*
X106862142Y3392857D02*
X107219285Y2321428D01*
X106290714Y2321428D01*
X105076428Y2821428D02*
X105076428Y1821428D01*
X105433571Y3392857D02*
X105790714Y2321428D01*
X104862142Y2321428D01*
X104362142Y1821428D02*
X103219285Y3321428D01*
X104147857Y3321428D02*
X104005000Y3250000D01*
X103933571Y3107142D01*
X104005000Y2964285D01*
X104147857Y2892857D01*
X104290714Y2964285D01*
X104362142Y3107142D01*
X104290714Y3250000D01*
X104147857Y3321428D01*
X103290714Y1892857D02*
X103219285Y2035714D01*
X103290714Y2178571D01*
X103433571Y2250000D01*
X103576428Y2178571D01*
X103647857Y2035714D01*
X103576428Y1892857D01*
X103433571Y1821428D01*
X103290714Y1892857D01*
X100790714Y1892857D02*
X100933571Y1821428D01*
X101219285Y1821428D01*
X101362142Y1892857D01*
X101433571Y1964285D01*
X101505000Y2107142D01*
X101505000Y2535714D01*
X101433571Y2678571D01*
X101362142Y2750000D01*
X101219285Y2821428D01*
X100933571Y2821428D01*
X100790714Y2750000D01*
X99933571Y1821428D02*
X100076428Y1892857D01*
X100147857Y1964285D01*
X100219285Y2107142D01*
X100219285Y2535714D01*
X100147857Y2678571D01*
X100076428Y2750000D01*
X99933571Y2821428D01*
X99719285Y2821428D01*
X99576428Y2750000D01*
X99505000Y2678571D01*
X99433571Y2535714D01*
X99433571Y2107142D01*
X99505000Y1964285D01*
X99576428Y1892857D01*
X99719285Y1821428D01*
X99933571Y1821428D01*
X98147857Y1892857D02*
X98290714Y1821428D01*
X98576428Y1821428D01*
X98719285Y1892857D01*
X98790714Y1964285D01*
X98862142Y2107142D01*
X98862142Y2535714D01*
X98790714Y2678571D01*
X98719285Y2750000D01*
X98576428Y2821428D01*
X98290714Y2821428D01*
X98147857Y2750000D01*
X97290714Y1821428D02*
X97433571Y1892857D01*
X97505000Y1964285D01*
X97576428Y2107142D01*
X97576428Y2535714D01*
X97505000Y2678571D01*
X97433571Y2750000D01*
X97290714Y2821428D01*
X97076428Y2821428D01*
X96933571Y2750000D01*
X96862142Y2678571D01*
X96790714Y2535714D01*
X96790714Y2107142D01*
X96862142Y1964285D01*
X96933571Y1892857D01*
X97076428Y1821428D01*
X97290714Y1821428D01*
X95505000Y1821428D02*
X95505000Y2607142D01*
X95576428Y2750000D01*
X95719285Y2821428D01*
X96005000Y2821428D01*
X96147857Y2750000D01*
X95505000Y1892857D02*
X95647857Y1821428D01*
X96005000Y1821428D01*
X96147857Y1892857D01*
X96219285Y2035714D01*
X96219285Y2178571D01*
X96147857Y2321428D01*
X96005000Y2392857D01*
X95647857Y2392857D01*
X95505000Y2464285D01*
X92576428Y3392857D02*
X93862142Y1464285D01*
X91005000Y3392857D02*
X92290714Y1464285D01*
X89362142Y1821428D02*
X89362142Y3321428D01*
X89362142Y2750000D02*
X89219285Y2821428D01*
X88933571Y2821428D01*
X88790714Y2750000D01*
X88719285Y2678571D01*
X88647857Y2535714D01*
X88647857Y2107142D01*
X88719285Y1964285D01*
X88790714Y1892857D01*
X88933571Y1821428D01*
X89219285Y1821428D01*
X89362142Y1892857D01*
X88147857Y2821428D02*
X87790714Y1821428D01*
X87433571Y2821428D02*
X87790714Y1821428D01*
X87933571Y1464285D01*
X88005000Y1392857D01*
X88147857Y1321428D01*
X85076428Y1821428D02*
X85076428Y2607142D01*
X85147857Y2750000D01*
X85290714Y2821428D01*
X85576428Y2821428D01*
X85719285Y2750000D01*
X85076428Y1892857D02*
X85219285Y1821428D01*
X85576428Y1821428D01*
X85719285Y1892857D01*
X85790714Y2035714D01*
X85790714Y2178571D01*
X85719285Y2321428D01*
X85576428Y2392857D01*
X85219285Y2392857D01*
X85076428Y2464285D01*
X84433571Y1892857D02*
X84290714Y1821428D01*
X84005000Y1821428D01*
X83862142Y1892857D01*
X83790714Y2035714D01*
X83790714Y2107142D01*
X83862142Y2250000D01*
X84005000Y2321428D01*
X84219285Y2321428D01*
X84362142Y2392857D01*
X84433571Y2535714D01*
X84433571Y2607142D01*
X84362142Y2750000D01*
X84219285Y2821428D01*
X84005000Y2821428D01*
X83862142Y2750000D01*
X83362142Y2821428D02*
X82790714Y2821428D01*
X83147857Y3321428D02*
X83147857Y2035714D01*
X83076428Y1892857D01*
X82933571Y1821428D01*
X82790714Y1821428D01*
X82290714Y1821428D02*
X82290714Y2821428D01*
X82290714Y2535714D02*
X82219285Y2678571D01*
X82147857Y2750000D01*
X82005000Y2821428D01*
X81862142Y2821428D01*
X80719285Y1821428D02*
X80719285Y2607142D01*
X80790714Y2750000D01*
X80933571Y2821428D01*
X81219285Y2821428D01*
X81362142Y2750000D01*
X80719285Y1892857D02*
X80862142Y1821428D01*
X81219285Y1821428D01*
X81362142Y1892857D01*
X81433571Y2035714D01*
X81433571Y2178571D01*
X81362142Y2321428D01*
X81219285Y2392857D01*
X80862142Y2392857D01*
X80719285Y2464285D01*
X79076428Y2821428D02*
X78505000Y2821428D01*
X78862142Y3321428D02*
X78862142Y2035714D01*
X78790714Y1892857D01*
X78647857Y1821428D01*
X78505000Y1821428D01*
X77362142Y1821428D02*
X77362142Y2607142D01*
X77433571Y2750000D01*
X77576428Y2821428D01*
X77862142Y2821428D01*
X78005000Y2750000D01*
X77362142Y1892857D02*
X77505000Y1821428D01*
X77862142Y1821428D01*
X78005000Y1892857D01*
X78076428Y2035714D01*
X78076428Y2178571D01*
X78005000Y2321428D01*
X77862142Y2392857D01*
X77505000Y2392857D01*
X77362142Y2464285D01*
X76647857Y2821428D02*
X76647857Y1821428D01*
X76647857Y2678571D02*
X76576428Y2750000D01*
X76433571Y2821428D01*
X76219285Y2821428D01*
X76076428Y2750000D01*
X76005000Y2607142D01*
X76005000Y1821428D01*
X74647857Y2821428D02*
X74647857Y1821428D01*
X75290714Y2821428D02*
X75290714Y2035714D01*
X75219285Y1892857D01*
X75076428Y1821428D01*
X74862142Y1821428D01*
X74719285Y1892857D01*
X74647857Y1964285D01*
X73933571Y1821428D02*
X73933571Y3321428D01*
X73790714Y2392857D02*
X73362142Y1821428D01*
X73362142Y2821428D02*
X73933571Y2250000D01*
X72719285Y1821428D02*
X72719285Y2821428D01*
X72719285Y3321428D02*
X72790714Y3250000D01*
X72719285Y3178571D01*
X72647857Y3250000D01*
X72719285Y3321428D01*
X72719285Y3178571D01*
X70933571Y3178571D02*
X70862142Y3250000D01*
X70719285Y3321428D01*
X70362142Y3321428D01*
X70219285Y3250000D01*
X70147857Y3178571D01*
X70076428Y3035714D01*
X70076428Y2892857D01*
X70147857Y2678571D01*
X71005000Y1821428D01*
X70076428Y1821428D01*
X69147857Y3321428D02*
X69005000Y3321428D01*
X68862142Y3250000D01*
X68790714Y3178571D01*
X68719285Y3035714D01*
X68647857Y2750000D01*
X68647857Y2392857D01*
X68719285Y2107142D01*
X68790714Y1964285D01*
X68862142Y1892857D01*
X69005000Y1821428D01*
X69147857Y1821428D01*
X69290714Y1892857D01*
X69362142Y1964285D01*
X69433571Y2107142D01*
X69505000Y2392857D01*
X69505000Y2750000D01*
X69433571Y3035714D01*
X69362142Y3178571D01*
X69290714Y3250000D01*
X69147857Y3321428D01*
X68076428Y3178571D02*
X68005000Y3250000D01*
X67862142Y3321428D01*
X67505000Y3321428D01*
X67362142Y3250000D01*
X67290714Y3178571D01*
X67219285Y3035714D01*
X67219285Y2892857D01*
X67290714Y2678571D01*
X68147857Y1821428D01*
X67219285Y1821428D01*
X65790714Y1821428D02*
X66647857Y1821428D01*
X66219285Y1821428D02*
X66219285Y3321428D01*
X66362142Y3107142D01*
X66505000Y2964285D01*
X66647857Y2892857D01*
D11*
X86500000Y-72000000D03*
X97500000Y-72000000D03*
D12*
X92000000Y-72000000D03*
D13*
X94800000Y-77900000D03*
D14*
X87000000Y-75800000D03*
X92000000Y-77900000D03*
D13*
X84200000Y-75700000D03*
D11*
X14500000Y-72000000D03*
X25500000Y-72000000D03*
D12*
X20000000Y-72000000D03*
D13*
X22800000Y-77900000D03*
D14*
X15000000Y-75800000D03*
X20000000Y-77900000D03*
D13*
X12200000Y-75700000D03*
D15*
X53750000Y-800000D03*
D16*
X56050000Y3800000D03*
X56050000Y-3200000D03*
D15*
X53750000Y2200000D03*
X53750000Y-4800000D03*
X58350000Y-5900000D03*
D17*
X5000000Y-77800000D03*
X5000000Y-16000000D03*
X106950000Y-77680000D03*
X107000000Y-16000000D03*
D18*
X5880000Y4070000D03*
X33820000Y-11170000D03*
X8420000Y4070000D03*
X10960000Y4070000D03*
X13500000Y4070000D03*
X16040000Y4070000D03*
X18580000Y4070000D03*
X21120000Y4070000D03*
X23660000Y4070000D03*
X26200000Y4070000D03*
X28740000Y4070000D03*
X31280000Y4070000D03*
X33820000Y4070000D03*
X31280000Y-11170000D03*
X28740000Y-11170000D03*
X26200000Y-11170000D03*
X23660000Y-11170000D03*
X21120000Y-11170000D03*
X18580000Y-11170000D03*
X16040000Y-11170000D03*
X13500000Y-11170000D03*
X10960000Y-11170000D03*
X8420000Y-11170000D03*
D19*
X5880000Y-11170000D03*
D11*
X59500000Y-72000000D03*
X70500000Y-72000000D03*
D12*
X65000000Y-72000000D03*
D13*
X67800000Y-77900000D03*
D14*
X60000000Y-75800000D03*
X65000000Y-77900000D03*
D13*
X57200000Y-75700000D03*
D11*
X23500000Y-55000000D03*
X34500000Y-55000000D03*
D12*
X29000000Y-55000000D03*
D13*
X31800000Y-60900000D03*
D14*
X24000000Y-58800000D03*
X29000000Y-60900000D03*
D13*
X21200000Y-58700000D03*
D11*
X41500000Y-55000000D03*
X52500000Y-55000000D03*
D12*
X47000000Y-55000000D03*
D13*
X49800000Y-60900000D03*
D14*
X42000000Y-58800000D03*
X47000000Y-60900000D03*
D13*
X39200000Y-58700000D03*
D11*
X59500000Y-55000000D03*
X70500000Y-55000000D03*
D12*
X65000000Y-55000000D03*
D13*
X67800000Y-60900000D03*
D14*
X60000000Y-58800000D03*
X65000000Y-60900000D03*
D13*
X57200000Y-58700000D03*
D11*
X77500000Y-55000000D03*
X88500000Y-55000000D03*
D12*
X83000000Y-55000000D03*
D13*
X85800000Y-60900000D03*
D14*
X78000000Y-58800000D03*
X83000000Y-60900000D03*
D13*
X75200000Y-58700000D03*
D11*
X95500000Y-55000000D03*
X106500000Y-55000000D03*
D12*
X101000000Y-55000000D03*
D13*
X103800000Y-60900000D03*
D14*
X96000000Y-58800000D03*
X101000000Y-60900000D03*
D13*
X93200000Y-58700000D03*
D11*
X5500000Y-55000000D03*
X16500000Y-55000000D03*
D12*
X11000000Y-55000000D03*
D13*
X13800000Y-60900000D03*
D14*
X6000000Y-58800000D03*
X11000000Y-60900000D03*
D13*
X3200000Y-58700000D03*
D11*
X59500000Y-38000000D03*
X70500000Y-38000000D03*
D12*
X65000000Y-38000000D03*
D13*
X67800000Y-43900000D03*
D14*
X60000000Y-41800000D03*
X65000000Y-43900000D03*
D13*
X57200000Y-41700000D03*
D11*
X77500000Y-38000000D03*
X88500000Y-38000000D03*
D12*
X83000000Y-38000000D03*
D13*
X85800000Y-43900000D03*
D14*
X78000000Y-41800000D03*
X83000000Y-43900000D03*
D13*
X75200000Y-41700000D03*
D11*
X23500000Y-38000000D03*
X34500000Y-38000000D03*
D12*
X29000000Y-38000000D03*
D13*
X31800000Y-43900000D03*
D14*
X24000000Y-41800000D03*
X29000000Y-43900000D03*
D13*
X21200000Y-41700000D03*
D11*
X95500000Y-38000000D03*
X106500000Y-38000000D03*
D12*
X101000000Y-38000000D03*
D13*
X103800000Y-43900000D03*
D14*
X96000000Y-41800000D03*
X101000000Y-43900000D03*
D13*
X93200000Y-41700000D03*
D11*
X5500000Y-38000000D03*
X16500000Y-38000000D03*
D12*
X11000000Y-38000000D03*
D13*
X13800000Y-43900000D03*
D14*
X6000000Y-41800000D03*
X11000000Y-43900000D03*
D13*
X3200000Y-41700000D03*
D11*
X41500000Y-38000000D03*
X52500000Y-38000000D03*
D12*
X47000000Y-38000000D03*
D13*
X49800000Y-43900000D03*
D14*
X42000000Y-41800000D03*
X47000000Y-43900000D03*
D13*
X39200000Y-41700000D03*
D11*
X41500000Y-21000000D03*
X52500000Y-21000000D03*
D12*
X47000000Y-21000000D03*
D13*
X49800000Y-26900000D03*
D14*
X42000000Y-24800000D03*
X47000000Y-26900000D03*
D13*
X39200000Y-24700000D03*
D11*
X59500000Y-21000000D03*
X70500000Y-21000000D03*
D12*
X65000000Y-21000000D03*
D13*
X67800000Y-26900000D03*
D14*
X60000000Y-24800000D03*
X65000000Y-26900000D03*
D13*
X57200000Y-24700000D03*
D11*
X77500000Y-21000000D03*
X88500000Y-21000000D03*
D12*
X83000000Y-21000000D03*
D13*
X85800000Y-26900000D03*
D14*
X78000000Y-24800000D03*
X83000000Y-26900000D03*
D13*
X75200000Y-24700000D03*
D11*
X95500000Y-21000000D03*
X106500000Y-21000000D03*
D12*
X101000000Y-21000000D03*
D13*
X103800000Y-26900000D03*
D14*
X96000000Y-24800000D03*
X101000000Y-26900000D03*
D13*
X93200000Y-24700000D03*
D11*
X5500000Y-21000000D03*
X16500000Y-21000000D03*
D12*
X11000000Y-21000000D03*
D13*
X13800000Y-26900000D03*
D14*
X6000000Y-24800000D03*
X11000000Y-26900000D03*
D13*
X3200000Y-24700000D03*
D11*
X23500000Y-21000000D03*
X34500000Y-21000000D03*
D12*
X29000000Y-21000000D03*
D13*
X31800000Y-26900000D03*
D14*
X24000000Y-24800000D03*
X29000000Y-26900000D03*
D13*
X21200000Y-24700000D03*
D11*
X41500000Y-72000000D03*
X52500000Y-72000000D03*
D12*
X47000000Y-72000000D03*
D13*
X49800000Y-77900000D03*
D14*
X42000000Y-75800000D03*
X47000000Y-77900000D03*
D13*
X39200000Y-75700000D03*
D20*
X14100000Y-16000000D03*
D21*
X21900000Y-16000000D03*
D22*
X19575000Y-16000000D03*
X16425000Y-16000000D03*
D20*
X98525000Y-66000000D03*
D21*
X106325000Y-66000000D03*
D22*
X104000000Y-66000000D03*
X100850000Y-66000000D03*
D20*
X68525000Y-67000000D03*
D21*
X76325000Y-67000000D03*
D22*
X74000000Y-67000000D03*
X70850000Y-67000000D03*
D20*
X50400000Y-67000000D03*
D21*
X58200000Y-67000000D03*
D22*
X55875000Y-67000000D03*
X52725000Y-67000000D03*
D20*
X14525000Y-67000000D03*
D21*
X22325000Y-67000000D03*
D22*
X20000000Y-67000000D03*
X16850000Y-67000000D03*
D20*
X98100000Y-49000000D03*
D21*
X105900000Y-49000000D03*
D22*
X103575000Y-49000000D03*
X100425000Y-49000000D03*
D20*
X86100000Y-50000000D03*
D21*
X93900000Y-50000000D03*
D22*
X91575000Y-50000000D03*
X88425000Y-50000000D03*
D20*
X68100000Y-50000000D03*
D21*
X75900000Y-50000000D03*
D22*
X73575000Y-50000000D03*
X70425000Y-50000000D03*
D20*
X50100000Y-50000000D03*
D21*
X57900000Y-50000000D03*
D22*
X55575000Y-50000000D03*
X52425000Y-50000000D03*
D20*
X32100000Y-50000000D03*
D21*
X39900000Y-50000000D03*
D22*
X37575000Y-50000000D03*
X34425000Y-50000000D03*
D20*
X14100000Y-50000000D03*
D21*
X21900000Y-50000000D03*
D22*
X19575000Y-50000000D03*
X16425000Y-50000000D03*
D20*
X98100000Y-32000000D03*
D21*
X105900000Y-32000000D03*
D22*
X103575000Y-32000000D03*
X100425000Y-32000000D03*
D20*
X86100000Y-33000000D03*
D21*
X93900000Y-33000000D03*
D22*
X91575000Y-33000000D03*
X88425000Y-33000000D03*
D20*
X68100000Y-33000000D03*
D21*
X75900000Y-33000000D03*
D22*
X73575000Y-33000000D03*
X70425000Y-33000000D03*
D20*
X50100000Y-33000000D03*
D21*
X57900000Y-33000000D03*
D22*
X55575000Y-33000000D03*
X52425000Y-33000000D03*
D20*
X32100000Y-33000000D03*
D21*
X39900000Y-33000000D03*
D22*
X37575000Y-33000000D03*
X34425000Y-33000000D03*
D20*
X14100000Y-33000000D03*
D21*
X21900000Y-33000000D03*
D22*
X19575000Y-33000000D03*
X16425000Y-33000000D03*
D20*
X92300000Y-16000000D03*
D21*
X100100000Y-16000000D03*
D22*
X97775000Y-16000000D03*
X94625000Y-16000000D03*
D20*
X81300000Y-16000000D03*
D21*
X89100000Y-16000000D03*
D22*
X86775000Y-16000000D03*
X83625000Y-16000000D03*
D20*
X68100000Y-16000000D03*
D21*
X75900000Y-16000000D03*
D22*
X73575000Y-16000000D03*
X70425000Y-16000000D03*
D20*
X50100000Y-16000000D03*
D21*
X57900000Y-16000000D03*
D22*
X55575000Y-16000000D03*
X52425000Y-16000000D03*
D20*
X32100000Y-16000000D03*
D21*
X39900000Y-16000000D03*
D22*
X37575000Y-16000000D03*
X34425000Y-16000000D03*
M02*
