G04 #@! TF.GenerationSoftware,KiCad,Pcbnew,5.1.10-88a1d61d58~88~ubuntu18.04.1*
G04 #@! TF.CreationDate,2021-10-06T13:15:52-05:00*
G04 #@! TF.ProjectId,keyboard,6b657962-6f61-4726-942e-6b696361645f,rev?*
G04 #@! TF.SameCoordinates,Original*
G04 #@! TF.FileFunction,Soldermask,Top*
G04 #@! TF.FilePolarity,Negative*
%FSLAX46Y46*%
G04 Gerber Fmt 4.6, Leading zero omitted, Abs format (unit mm)*
G04 Created by KiCad (PCBNEW 5.1.10-88a1d61d58~88~ubuntu18.04.1) date 2021-10-06 13:15:52*
%MOMM*%
%LPD*%
G01*
G04 APERTURE LIST*
%ADD10C,1.700000*%
%ADD11C,3.400000*%
%ADD12C,3.000000*%
%ADD13O,1.600000X2.000000*%
%ADD14C,0.800000*%
%ADD15C,2.200000*%
%ADD16C,1.752600*%
%ADD17R,1.752600X1.752600*%
%ADD18C,1.600000*%
%ADD19R,1.600000X1.600000*%
G04 APERTURE END LIST*
D10*
X86500000Y-72000000D03*
X97500000Y-72000000D03*
D11*
X92000000Y-72000000D03*
D12*
X87000000Y-75800000D03*
X92000000Y-77900000D03*
D10*
X14500000Y-72000000D03*
X25500000Y-72000000D03*
D11*
X20000000Y-72000000D03*
D12*
X15000000Y-75800000D03*
X20000000Y-77900000D03*
D13*
X53750000Y-800000D03*
D14*
X56050000Y3800000D03*
X56050000Y-3200000D03*
D13*
X53750000Y2200000D03*
X53750000Y-4800000D03*
X58350000Y-5900000D03*
D15*
X5000000Y-77800000D03*
X5000000Y-16000000D03*
X106950000Y-77680000D03*
X107000000Y-16000000D03*
D16*
X5880000Y4070000D03*
X33820000Y-11170000D03*
X8420000Y4070000D03*
X10960000Y4070000D03*
X13500000Y4070000D03*
X16040000Y4070000D03*
X18580000Y4070000D03*
X21120000Y4070000D03*
X23660000Y4070000D03*
X26200000Y4070000D03*
X28740000Y4070000D03*
X31280000Y4070000D03*
X33820000Y4070000D03*
X31280000Y-11170000D03*
X28740000Y-11170000D03*
X26200000Y-11170000D03*
X23660000Y-11170000D03*
X21120000Y-11170000D03*
X18580000Y-11170000D03*
X16040000Y-11170000D03*
X13500000Y-11170000D03*
X10960000Y-11170000D03*
X8420000Y-11170000D03*
D17*
X5880000Y-11170000D03*
D10*
X59500000Y-72000000D03*
X70500000Y-72000000D03*
D11*
X65000000Y-72000000D03*
D12*
X60000000Y-75800000D03*
X65000000Y-77900000D03*
D10*
X23500000Y-55000000D03*
X34500000Y-55000000D03*
D11*
X29000000Y-55000000D03*
D12*
X24000000Y-58800000D03*
X29000000Y-60900000D03*
D10*
X41500000Y-55000000D03*
X52500000Y-55000000D03*
D11*
X47000000Y-55000000D03*
D12*
X42000000Y-58800000D03*
X47000000Y-60900000D03*
D10*
X59500000Y-55000000D03*
X70500000Y-55000000D03*
D11*
X65000000Y-55000000D03*
D12*
X60000000Y-58800000D03*
X65000000Y-60900000D03*
D10*
X77500000Y-55000000D03*
X88500000Y-55000000D03*
D11*
X83000000Y-55000000D03*
D12*
X78000000Y-58800000D03*
X83000000Y-60900000D03*
D10*
X95500000Y-55000000D03*
X106500000Y-55000000D03*
D11*
X101000000Y-55000000D03*
D12*
X96000000Y-58800000D03*
X101000000Y-60900000D03*
D10*
X5500000Y-55000000D03*
X16500000Y-55000000D03*
D11*
X11000000Y-55000000D03*
D12*
X6000000Y-58800000D03*
X11000000Y-60900000D03*
D10*
X59500000Y-38000000D03*
X70500000Y-38000000D03*
D11*
X65000000Y-38000000D03*
D12*
X60000000Y-41800000D03*
X65000000Y-43900000D03*
D10*
X77500000Y-38000000D03*
X88500000Y-38000000D03*
D11*
X83000000Y-38000000D03*
D12*
X78000000Y-41800000D03*
X83000000Y-43900000D03*
D10*
X23500000Y-38000000D03*
X34500000Y-38000000D03*
D11*
X29000000Y-38000000D03*
D12*
X24000000Y-41800000D03*
X29000000Y-43900000D03*
D10*
X95500000Y-38000000D03*
X106500000Y-38000000D03*
D11*
X101000000Y-38000000D03*
D12*
X96000000Y-41800000D03*
X101000000Y-43900000D03*
D10*
X5500000Y-38000000D03*
X16500000Y-38000000D03*
D11*
X11000000Y-38000000D03*
D12*
X6000000Y-41800000D03*
X11000000Y-43900000D03*
D10*
X41500000Y-38000000D03*
X52500000Y-38000000D03*
D11*
X47000000Y-38000000D03*
D12*
X42000000Y-41800000D03*
X47000000Y-43900000D03*
D10*
X41500000Y-21000000D03*
X52500000Y-21000000D03*
D11*
X47000000Y-21000000D03*
D12*
X42000000Y-24800000D03*
X47000000Y-26900000D03*
D10*
X59500000Y-21000000D03*
X70500000Y-21000000D03*
D11*
X65000000Y-21000000D03*
D12*
X60000000Y-24800000D03*
X65000000Y-26900000D03*
D10*
X77500000Y-21000000D03*
X88500000Y-21000000D03*
D11*
X83000000Y-21000000D03*
D12*
X78000000Y-24800000D03*
X83000000Y-26900000D03*
D10*
X95500000Y-21000000D03*
X106500000Y-21000000D03*
D11*
X101000000Y-21000000D03*
D12*
X96000000Y-24800000D03*
X101000000Y-26900000D03*
D10*
X5500000Y-21000000D03*
X16500000Y-21000000D03*
D11*
X11000000Y-21000000D03*
D12*
X6000000Y-24800000D03*
X11000000Y-26900000D03*
D10*
X23500000Y-21000000D03*
X34500000Y-21000000D03*
D11*
X29000000Y-21000000D03*
D12*
X24000000Y-24800000D03*
X29000000Y-26900000D03*
D10*
X41500000Y-72000000D03*
X52500000Y-72000000D03*
D11*
X47000000Y-72000000D03*
D12*
X42000000Y-75800000D03*
X47000000Y-77900000D03*
D18*
X14100000Y-16000000D03*
D19*
X21900000Y-16000000D03*
D18*
X98525000Y-66000000D03*
D19*
X106325000Y-66000000D03*
D18*
X68525000Y-67000000D03*
D19*
X76325000Y-67000000D03*
D18*
X50400000Y-67000000D03*
D19*
X58200000Y-67000000D03*
D18*
X14525000Y-67000000D03*
D19*
X22325000Y-67000000D03*
D18*
X98100000Y-49000000D03*
D19*
X105900000Y-49000000D03*
D18*
X86100000Y-50000000D03*
D19*
X93900000Y-50000000D03*
D18*
X68100000Y-50000000D03*
D19*
X75900000Y-50000000D03*
D18*
X50100000Y-50000000D03*
D19*
X57900000Y-50000000D03*
D18*
X32100000Y-50000000D03*
D19*
X39900000Y-50000000D03*
D18*
X14100000Y-50000000D03*
D19*
X21900000Y-50000000D03*
D18*
X98100000Y-32000000D03*
D19*
X105900000Y-32000000D03*
D18*
X86100000Y-33000000D03*
D19*
X93900000Y-33000000D03*
D18*
X68100000Y-33000000D03*
D19*
X75900000Y-33000000D03*
D18*
X50100000Y-33000000D03*
D19*
X57900000Y-33000000D03*
D18*
X32100000Y-33000000D03*
D19*
X39900000Y-33000000D03*
D18*
X14100000Y-33000000D03*
D19*
X21900000Y-33000000D03*
D18*
X92300000Y-16000000D03*
D19*
X100100000Y-16000000D03*
D18*
X81300000Y-16000000D03*
D19*
X89100000Y-16000000D03*
D18*
X68100000Y-16000000D03*
D19*
X75900000Y-16000000D03*
D18*
X50100000Y-16000000D03*
D19*
X57900000Y-16000000D03*
D18*
X32100000Y-16000000D03*
D19*
X39900000Y-16000000D03*
M02*
